# xmcd
#
# Track frame offsets: 
#        150
#        15773
#        35293
#        69104
#        91726
#        115667
#        141560
#        175957
#        223019
#
# Disc length: 3659 seconds
#
# Revision: 0
# Processed by: cddbd v1.5.2PL0 Copyright (c) Steve Scherf et al.
# Submitted via: ExactAudioCopy v0.95b4
#
DISCID=6c0e4909
DTITLE=Gary Moore - To The Stormy Blues [CD1]
DYEAR=2001
DGENRE=Blues
TTITLE0=You Upset Me Baby
TTITLE1=Cold Black Night
TTITLE2=Stormy Monday
TTITLE3=Oh Pretty Woman
TTITLE4=Walking By My Self 
TTITLE5=All Your Love
TTITLE6=Still Got The Blues
TTITLE7=Too Tired/The Sky Is Crying
TTITLE8=How Many Lies/Fire
EXTD=
EXTT0=
EXTT1=
EXTT2=
EXTT3=
EXTT4=
EXTT5=
EXTT6=
EXTT7=
EXTT8=
PLAYORDER=
